<svg width="16" height="16" viewBox="0 0 16 16" fill="none" xmlns="http://www.w3.org/2000/svg">
<g clip-path="url(#clip0_1_5939)">
<path d="M7.99992 14.6667C6.57042 14.6667 5.54174 14.666 4.73972 14.5882C3.94689 14.5113 3.43972 14.3636 3.03497 14.1093C2.57237 13.8187 2.1812 13.4275 1.89052 12.965C1.63628 12.5602 1.4885 12.053 1.41174 11.2602C1.33396 10.4582 1.33325 9.42951 1.33325 8.00001C1.33325 6.57052 1.33396 5.54183 1.41174 4.73981C1.4885 3.94698 1.63628 3.43981 1.89052 3.03506C2.18119 2.57245 2.57236 2.18128 3.03497 1.89062C3.43972 1.63637 3.94689 1.4886 4.73972 1.41183C5.54164 1.33405 6.57032 1.33334 7.99992 1.33334C9.42941 1.33334 10.4581 1.33405 11.2601 1.41183C12.0529 1.4886 12.5601 1.63637 12.9649 1.89062C13.4274 2.18129 13.8186 2.57246 14.1092 3.03506C14.3636 3.43981 14.5112 3.94698 14.5881 4.73981C14.6659 5.54183 14.6666 6.57052 14.6666 8.00001C14.6666 9.42951 14.6659 10.4582 14.5881 11.2602C14.5112 12.053 14.3636 12.5602 14.1092 12.965C13.8186 13.4275 13.4274 13.8187 12.9649 14.1093C12.5601 14.3636 12.0529 14.5113 11.2601 14.5882C10.4581 14.666 9.42941 14.6667 7.99992 14.6667Z" fill="white" stroke="white" stroke-width="2"/>
<path d="M7.99992 11.3333C9.47268 11.3333 10.6666 10.1394 10.6666 8.66667C10.6666 7.19391 9.47268 6 7.99992 6C6.52716 6 5.33325 7.19391 5.33325 8.66667C5.33325 10.1394 6.52716 11.3333 7.99992 11.3333Z" fill="white" stroke="black" stroke-width="2"/>
<path d="M11.25 5.5C11.6642 5.5 12 5.16421 12 4.75C12 4.33579 11.6642 4 11.25 4C10.8358 4 10.5 4.33579 10.5 4.75C10.5 5.16421 10.8358 5.5 11.25 5.5Z" fill="black"/>
</g>
<defs>
<clipPath id="clip0_1_5939">
<rect width="16" height="16" fill="white"/>
</clipPath>
</defs>
</svg>
